<svg xmlns="http://www.w3.org/2000/svg" viewBox="0 0 33 33"><defs><style>.cls-1{fill:#c69c6d;stroke:#c69c6d;stroke-miterlimit:10;}</style></defs><title>Asset 3</title><g id="Layer_2" data-name="Layer 2"><g id="Layer_1-2" data-name="Layer 1"><path class="cls-1" d="M28.7.5H4.3A3.8,3.8,0,0,0,.5,4.3V28.7a3.8,3.8,0,0,0,3.8,3.8H28.7a3.8,3.8,0,0,0,3.8-3.8V4.3A3.8,3.8,0,0,0,28.7.5Zm-4.2,4h3a1,1,0,0,1,1,1v3a1,1,0,0,1-1,1h-3a1,1,0,0,1-1-1v-3A1,1,0,0,1,24.5,4.5Zm-8,5.9a6.14,6.14,0,1,1-6.16,6.14A6.14,6.14,0,0,1,16.54,10.4Zm12,19.1H4.5a1,1,0,0,1-1-1v-15h4a6.13,6.13,0,0,0-.7,3,9.74,9.74,0,0,0,19.47,0,5.09,5.09,0,0,0-.77-3h4v15A1,1,0,0,1,28.5,29.5Z"/></g></g></svg>