<svg xmlns="http://www.w3.org/2000/svg" viewBox="0 0 35.47 27.13"><defs><style>.cls-1{fill:#1da1f2;stroke:#1da1f2;stroke-miterlimit:10;}</style></defs><title>Asset 2</title><g id="Layer_2" data-name="Layer 2"><g id="Layer_1-2" data-name="Layer 1"><path class="cls-1" d="M34.1,3.7a12.92,12.92,0,0,1-3.77,1A6.59,6.59,0,0,0,33.21,1.1,13,13,0,0,1,29,2.69a6.57,6.57,0,0,0-11.35,4.5,6.67,6.67,0,0,0,.17,1.49A18.57,18.57,0,0,1,4.33,1.82a6.49,6.49,0,0,0-.89,3.3,6.58,6.58,0,0,0,2.92,5.47,6.66,6.66,0,0,1-3-.82v.08a6.58,6.58,0,0,0,5.27,6.44,6.57,6.57,0,0,1-1.73.23,6.43,6.43,0,0,1-1.24-.12A6.57,6.57,0,0,0,11.82,21a13.19,13.19,0,0,1-8.16,2.81,13.34,13.34,0,0,1-1.56-.09,18.57,18.57,0,0,0,10.06,2.95c12.08,0,18.68-10,18.68-18.68,0-.29,0-.57,0-.85A13.42,13.42,0,0,0,34.1,3.7Z"/></g></g></svg>