<svg xmlns="http://www.w3.org/2000/svg" viewBox="0 0 33 15.39"><defs><style>.cls-1{fill:#ff7f34;stroke:#ff7f34;stroke-miterlimit:10;}</style></defs><title>Asset 4</title><g id="Layer_2" data-name="Layer 2"><g id="Layer_1-2" data-name="Layer 1"><path class="cls-1" d="M1.1,8.1A.13.13,0,0,0,1,8a.14.14,0,0,0-.14.13l-.33,3L.83,14a.14.14,0,0,0,.14.13A.13.13,0,0,0,1.1,14l.37-2.91Z"/><path class="cls-1" d="M6.24,5.36A.25.25,0,0,0,6,5.6l-.26,5.48L6,14.62a.25.25,0,0,0,.25.25.26.26,0,0,0,.25-.25h0l.29-3.54L6.49,5.6A.26.26,0,0,0,6.24,5.36Z"/><path class="cls-1" d="M3.58,7.26a.19.19,0,0,0-.19.19l-.3,3.63.3,3.51a.19.19,0,0,0,.19.19.21.21,0,0,0,.2-.19l.33-3.51L3.78,7.45A.21.21,0,0,0,3.58,7.26Z"/><path class="cls-1" d="M8.94,14.87a.31.31,0,0,0,.3-.31l.26-3.48L9.25,3.79a.32.32,0,0,0-.31-.3.31.31,0,0,0-.31.3L8.4,11.08l.23,3.48A.32.32,0,0,0,8.94,14.87Z"/><path class="cls-1" d="M14.46,14.88a.44.44,0,0,0,.43-.42h0l.17-3.38-.17-8.42a.43.43,0,0,0-.85,0l-.15,8.41L14,14.46A.44.44,0,0,0,14.46,14.88Z"/><path class="cls-1" d="M11.68,14.87a.36.36,0,0,0,.36-.36h0l.22-3.43L12,3.74a.36.36,0,1,0-.72,0l-.2,7.34.2,3.43A.36.36,0,0,0,11.68,14.87Z"/><path class="cls-1" d="M28.43,6.74a4.16,4.16,0,0,0-1.58.31A7.19,7.19,0,0,0,17.08,1c-.31.12-.39.24-.39.48V14.4a.49.49,0,0,0,.44.48h11.3a4.08,4.08,0,0,0,0-8.15Z"/></g></g></svg>