<svg xmlns="http://www.w3.org/2000/svg" viewBox="0 0 33 23.51"><defs><style>.cls-1{fill:#cc181e;stroke:#cc181e;stroke-miterlimit:10;}</style></defs><title>Asset 5</title><g id="Layer_2" data-name="Layer 2"><g id="Layer_1-2" data-name="Layer 1"><path class="cls-1" d="M32.18,5.36a6.91,6.91,0,0,0-1.27-3.18A4.59,4.59,0,0,0,27.7.82C23.22.5,16.51.5,16.51.5h0S9.78.5,5.3.82A4.59,4.59,0,0,0,2.09,2.18,6.91,6.91,0,0,0,.82,5.36,48.11,48.11,0,0,0,.5,10.53V13a48.41,48.41,0,0,0,.32,5.18,6.91,6.91,0,0,0,1.27,3.18,5.5,5.5,0,0,0,3.53,1.37c2.56.24,10.88.32,10.88.32s6.72,0,11.2-.34a4.57,4.57,0,0,0,3.21-1.35,6.91,6.91,0,0,0,1.27-3.18A48.41,48.41,0,0,0,32.5,13V10.53A48.11,48.11,0,0,0,32.18,5.36ZM13.2,15.9v-9l8.65,4.51Z"/></g></g></svg>